<?xml version="1.0" standalone="no"?><!DOCTYPE svg PUBLIC "-//W3C//DTD SVG 1.1//EN" "http://www.w3.org/Graphics/SVG/1.1/DTD/svg11.dtd"><svg t="1610003119667" class="icon" viewBox="0 0 1024 1024" version="1.1" xmlns="http://www.w3.org/2000/svg" p-id="2545" xmlns:xlink="http://www.w3.org/1999/xlink" width="200" height="200"><defs><style type="text/css"></style></defs><path d="M903.529412 0H542.117647a120.470588 120.470588 0 0 0-85.172706 35.297882l-421.647059 421.647059a120.470588 120.470588 0 0 0 0 170.345412l361.411765 361.411765c23.491765 23.552 54.332235 35.297882 85.172706 35.297882a119.868235 119.868235 0 0 0 85.172706-35.297882l421.647059-421.647059A120.470588 120.470588 0 0 0 1024 481.882353V120.470588a120.470588 120.470588 0 0 0-120.470588-120.470588z m0 481.882353l-421.647059 421.647059-361.411765-361.411765 421.647059-421.647059h361.411765v361.411765z" fill="#1E2330" p-id="2546"></path><path d="M692.705882 331.294118m-90.352941 0a90.352941 90.352941 0 1 0 180.705883 0 90.352941 90.352941 0 1 0-180.705883 0Z" fill="#1E2330" p-id="2547"></path></svg>