<?xml version="1.0" standalone="no"?><!DOCTYPE svg PUBLIC "-//W3C//DTD SVG 1.1//EN" "http://www.w3.org/Graphics/SVG/1.1/DTD/svg11.dtd"><svg t="1611506951482" class="icon" viewBox="0 0 1024 1024" version="1.1" xmlns="http://www.w3.org/2000/svg" p-id="590" xmlns:xlink="http://www.w3.org/1999/xlink" width="200" height="200"><defs><style type="text/css"></style></defs><path d="M630.684 270.413c4.553 4.553 7.408 11.40199999 7.408 18.229 0 3.415-0.56 6.831-1.698 10.264-1.157 2.835-3.433 5.692-5.71 7.966l-184.402 202.84499999 184.402 203.40400001c2.277 2.277 4.553 5.131 5.71 7.988 1.138 2.836 1.698 6.26900001 1.698 9.684 0 7.40800001-2.855 13.676-7.408 18.23-4.552 4.553-10.803 7.966-18.211 7.966-3.412 0-6.829-1.138-9.66300001-2.277-3.415-1.137-6.271-2.83600001-8.54799999-5.691l-200.913-221.073c-2.277-2.277-3.985-5.133-5.692-7.966-1.138-3.433-1.707-6.849-1.707-10.263 0-3.432 0.569-6.831 1.707-9.685 1.708-3.433 3.415-5.709 5.692-8.565L594.263 270.413c2.277-2.295 5.131-3.993 8.548-5.692 2.835-1.157 6.25-1.718 9.663-1.717 7.408 0.001 13.658 2.837 18.209 7.409z" p-id="591"></path></svg>